<svg id="Laag_1" data-name="Laag 1" xmlns="http://www.w3.org/2000/svg" xmlns:xlink="http://www.w3.org/1999/xlink" viewBox="0 0 1000 1000"><defs><style>.cls-1{fill:#f2f2f2;}.cls-2{fill:url(#Naamloos_verloop_34);}.cls-3{fill:url(#Naamloos_verloop_25);}.cls-4{fill:url(#Naamloos_verloop_22);}.cls-5{fill:url(#Naamloos_verloop_3);}.cls-6{fill:url(#Naamloos_verloop_3-2);}.cls-7{fill:url(#Naamloos_verloop_2);}.cls-8{fill:url(#Naamloos_verloop_47);}</style><linearGradient id="Naamloos_verloop_34" x1="170.4" y1="809.56" x2="104.31" y2="946.91" gradientUnits="userSpaceOnUse"><stop offset="0.52" stop-color="#e6e6e6"/><stop offset="0.7" stop-color="#d6d6d6"/><stop offset="1" stop-color="#b3b3b3"/></linearGradient><linearGradient id="Naamloos_verloop_25" x1="46.11" y1="399.24" x2="950.64" y2="399.24" gradientUnits="userSpaceOnUse"><stop offset="0" stop-color="#e6e6e6"/><stop offset="0.13" stop-color="#dbdbdb"/><stop offset="0.36" stop-color="#d0d0d0"/><stop offset="0.59" stop-color="#ccc"/></linearGradient><linearGradient id="Naamloos_verloop_22" x1="133.51" y1="703.25" x2="666.57" y2="-12.88" gradientUnits="userSpaceOnUse"><stop offset="0" stop-color="#fff"/><stop offset="0.02" stop-color="#fafafa"/><stop offset="0.13" stop-color="#d7d7d7"/><stop offset="0.24" stop-color="#bcbcbc"/><stop offset="0.35" stop-color="#a8a8a8"/><stop offset="0.47" stop-color="#9d9d9d"/><stop offset="0.59" stop-color="#999"/></linearGradient><linearGradient id="Naamloos_verloop_3" x1="276.45" y1="750.41" x2="590.96" y2="809.02" gradientUnits="userSpaceOnUse"><stop offset="0.31" stop-color="#fff"/><stop offset="0.58" stop-color="#e3e3e3"/><stop offset="0.82" stop-color="#d2d2d2"/><stop offset="1" stop-color="#ccc"/></linearGradient><linearGradient id="Naamloos_verloop_3-2" x1="136.85" y1="759.85" x2="398.9" y2="759.85" xlink:href="#Naamloos_verloop_3"/><linearGradient id="Naamloos_verloop_2" x1="461.02" y1="467.91" x2="717.04" y2="467.91" gradientUnits="userSpaceOnUse"><stop offset="0" stop-color="#fff"/><stop offset="0.02" stop-color="#fbfbfb"/><stop offset="0.12" stop-color="#e6e6e6"/><stop offset="0.24" stop-color="#d7d7d7"/><stop offset="0.38" stop-color="#cfcfcf"/><stop offset="0.59" stop-color="#ccc"/></linearGradient><linearGradient id="Naamloos_verloop_47" x1="415.59" y1="446.02" x2="717.04" y2="446.02" gradientUnits="userSpaceOnUse"><stop offset="0" stop-color="#fff"/><stop offset="0" stop-color="#fff"/><stop offset="0.59" stop-color="#ccc"/></linearGradient></defs><polygon class="cls-1" points="74.87 788.48 114.72 950.95 245.78 872.52 178.88 871.68 74.87 788.48"/><polygon class="cls-1" points="62.54 662.28 951.06 25.07 70.61 773.41 32.15 678.09 180.98 219.88 62.54 662.28"/><polygon class="cls-2" points="74.87 788.48 125.72 924 245.78 872.52 114.72 950.95 74.87 788.48"/><polygon class="cls-3" points="46.12 713.74 101.92 692.86 950.64 25.07 70.19 773.41 46.12 713.74"/><polygon class="cls-4" points="87.59 657.9 950.64 25.07 62.54 662.28 180.98 219.88 57.89 658.5 60.77 666 87.59 657.9"/><path class="cls-1" d="M255.29,863.94V834.47s42-47.66,5-89.05L136.85,743.6l262-87.85,62.92,57.69h0l143,21.33L427.12,772Z"/><polygon class="cls-5" points="398.9 655.75 417.46 715.48 458.86 739.29 392.62 759.85 255.29 863.95 427.12 771.97 604.79 734.77 461.82 713.44 461.82 713.44 398.9 655.75"/><path class="cls-6" d="M398.9,655.75l-262,87.85,123.46,1.82s37.53,36.84-5,89.05v29.47l12.59-26.17s45.54-34.25,7-98.46l-7-6.83-61.89,2Z"/><polygon class="cls-1" points="717.04 244.78 415.59 641.3 470.03 691.03 475.07 662.78 717.04 244.78"/><polygon class="cls-7" points="717.04 244.78 461.02 660.62 470.03 691.03 475.07 662.78 717.04 244.78"/><polygon class="cls-8" points="717.04 244.78 422.13 647.27 415.59 641.3 717.04 244.78"/></svg>