<svg id="Laag_1" data-name="Laag 1" xmlns="http://www.w3.org/2000/svg" viewBox="0 0 1000 1000"><defs><style>.cls-1{fill:none;stroke:#1a1a1a;stroke-miterlimit:10;}</style></defs><polygon class="cls-1" points="74.87 788.48 114.72 950.95 245.78 872.52 178.88 871.68 74.87 788.48"/><polygon class="cls-1" points="62.54 662.28 951.06 25.07 70.61 773.41 32.15 678.09 180.98 219.88 62.54 662.28"/><polygon class="cls-1" points="46.12 713.74 101.92 692.86 950.64 25.07 70.19 773.41 46.12 713.74"/><path class="cls-1" d="M255.29,863.94V834.47s42-47.66,5-89.05L136.85,743.6l262-87.85,62.92,57.69h0l143,21.33L427.12,772Z"/><polygon class="cls-1" points="717.04 244.78 415.59 641.3 470.03 691.03 475.07 662.78 717.04 244.78"/></svg>