<svg id="Laag_1" data-name="Laag 1" xmlns="http://www.w3.org/2000/svg" viewBox="0 0 1000 1000"><defs><style>.cls-1{fill:#333;}</style></defs><polygon class="cls-1" points="265.94 452.86 272.65 480.59 297.73 467.81 285.39 467.87 265.94 452.86"/><polyline class="cls-1" points="262.13 428.01 424.81 307.64 264.84 448.49 257.44 431.03 283.42 346.05"/><path class="cls-1" d="M304.69,464.76l-.09-5.44s7.59-8.92.63-16.44l-1-5.07,26.29-11.91,11.79,10.44,7.74,1.94,2.66,6.44-16.62,2.52Z"/><path class="cls-1" d="M335,423.28l11,8.36s58.6-80.3,55.08-87.65Z"/><path class="cls-1" d="M427.67,303.42l.89,6.78-1.28,15.93,13.84,74.55s1.86,2.12,1.36,8.92l.27,8.17s14.77,5.29,27.45-2c0,0,.07-31.32,2.73-38l51.4-174.58Z"/><path class="cls-1" d="M530.1,198.29,628.51,21.34h0L514.64,459.79s-10.33-24.89-43.07-27.1l79.16-174.91S572.56,200.17,530.1,198.29Z"/><path class="cls-1" d="M515.05,467s-15.11-30.52-43.4-29.79c0,0-14.22,51.46,12.77,77.83C484.42,515,509.71,492.3,515.05,467Z"/><path class="cls-1" d="M519.14,471.2s-7.85,25.74-29.78,43.71c0,0,17.29-16.66,60,7,0,0,40.55-27.55,87.72-11.71C637.05,510.17,611.27,482.54,519.14,471.2Z"/><path class="cls-1" d="M472,700.31S455.42,532.47,601.54,508.63c0,0,23.88-1.36,39.05,10.11,36.12,27.32,62,102.39-119.2,261.53,0,0-4.58-35.55-28.23-47.63,0,0,86.52-9.38,115.5-98.73,0,0,11.27-70.54-27.46-88.83,0,0-90.38,18.23-74.86,165.12C506.34,710.2,474.08,687.47,472,700.31Z"/><path class="cls-1" d="M503.81,777.5s-3.59-46.83-52.91-62.17c0,0-82.54,43.55-144.21-43.29l-9.64,4.33-25.62-9.27s-5.54,53.31,55.9,74C327.33,741.09,416.3,774.55,503.81,777.5Z"/><path class="cls-1" d="M324.21,668.49S399.57,664.4,461.7,698l-22.61,3.63S361.36,728.93,324.21,668.49Z"/><path class="cls-1" d="M576.76,582.18s-83.23,30.6-42,113.18C534.77,695.36,609.25,667.68,576.76,582.18Z"/><path class="cls-1" d="M443,421.93s-4.62,65,35.62,96.25c0,0-30-24.47-11.83-94.51C466.79,423.67,445.9,429,443,421.93Z"/><path class="cls-1" d="M307.83,773.08,245.15,628l66,47.13c-9.26,42.63,18.38,53.79,20.81,54.68l16.91,56.81,176.31,194Z"/><path class="cls-1" d="M245.92,628.94l64.88,46.31c-2.77,12.87-3.74,30.83,6.89,44.19a34,34,0,0,0,14,10.61l16.85,56.58,0,.14.1.11L518.7,974,308.11,772.89,245.92,628.94M244.38,627l63.18,146.24,224.14,214L349.19,786.44l-16.94-56.91s-30.54-9.81-20.72-54.57L244.38,627Z"/><path class="cls-1" d="M322.51,705.86l-75.79-76.94,70.54,45.5a6.7,6.7,0,0,0-.35,5c3,10.31,25.13,22.48,26.71,23.34L366,730,549.26,866.13Z"/><path class="cls-1" d="M249.06,630.82l67.78,43.72a7.07,7.07,0,0,0-.24,5c3,10.32,24.8,22.41,26.8,23.5l22.38,27.16.05.07.07,0L526.7,849.78l-204-144.15-73.69-74.81M244.39,627l77.93,79.1,249.42,176.3L366.29,729.77l-22.46-27.26s-32.27-17.4-26.14-28.2L244.39,627Z"/><path class="cls-1" d="M245.58,626.78l139.56-74.19L684.53,526.2,425.66,567.67,377,601.48a30.52,30.52,0,0,0-9.6-1.41c-20.94,0-33.73,16.88-40.8,31.13Z"/><path class="cls-1" d="M675.3,527.34l-249.62,40-.15,0-.12.09-48.49,33.68a31.12,31.12,0,0,0-9.55-1.38,36.9,36.9,0,0,0-19.71,5.76c-8.31,5.17-15.48,13.7-21.29,25.36l-79.59-4.35,138.46-73.6L675.3,527.34m18.47-2.29L385.05,552.27,244.38,627l82.39,4.5c13-26.43,30.08-31.14,40.6-31.14a29.69,29.69,0,0,1,9.65,1.45L425.79,568l268-42.93Z"/><path class="cls-1" d="M399.41,664.36l-35.29-2c-1.14-.54-18.38-8.53-29.49-8.53-4.59,0-7.6,1.35-8.95,4l-78.38-30,106.91,15.7,263.18,88.25Z"/><path class="cls-1" d="M250.21,628.55,354.1,643.81,590.9,723.2,399.5,664.05l-.07,0h-.08l-35.14-2c-1.71-.8-18.42-8.53-29.58-8.53-4.57,0-7.63,1.32-9.11,3.93l-75.31-28.86M244.39,627l81.45,31.21c1.35-3,4.66-4.1,8.79-4.1,11.5,0,29.41,8.52,29.41,8.52l35.27,2,244.54,75.58L354.26,643.17,244.39,627Z"/></svg>