<svg id="Laag_1" data-name="Laag 1" xmlns="http://www.w3.org/2000/svg" xmlns:xlink="http://www.w3.org/1999/xlink" viewBox="0 0 1000 1000"><defs><style>.cls-1,.cls-2,.cls-3,.cls-4,.cls-5{fill:#333;}.cls-1,.cls-3,.cls-4,.cls-5{stroke-miterlimit:10;}.cls-1,.cls-5{stroke-width:4px;}.cls-1{stroke:url(#Naamloos_verloop_35);}.cls-3,.cls-4,.cls-5{stroke:#333;}.cls-3{stroke-width:1.5px;}.cls-6{fill:#ccc;}.cls-7{fill:url(#Naamloos_verloop_27);}</style><linearGradient id="Naamloos_verloop_35" x1="553.73" y1="90.04" x2="553.73" y2="533.88" gradientUnits="userSpaceOnUse"><stop offset="0" stop-color="red"/><stop offset="0.05" stop-color="#e10303"/><stop offset="0.14" stop-color="#b30909"/><stop offset="0.23" stop-color="#8a0d0d"/><stop offset="0.33" stop-color="#671111"/><stop offset="0.43" stop-color="#4b1414"/><stop offset="0.54" stop-color="#351717"/><stop offset="0.66" stop-color="#261919"/><stop offset="0.8" stop-color="#1d1a1a"/><stop offset="1" stop-color="#1a1a1a"/></linearGradient><radialGradient id="Naamloos_verloop_27" cx="643.17" cy="90.79" r="15" gradientUnits="userSpaceOnUse"><stop offset="0" stop-color="red"/><stop offset="1" stop-color="#c1272d"/></radialGradient></defs><line class="cls-1" x1="464.3" y1="533.13" x2="643.17" y2="90.79"/><circle class="cls-2" cx="464.3" cy="533.13" r="41.96"/><circle class="cls-2" cx="788.26" cy="469.46" r="3.18"/><line class="cls-3" x1="464.3" y1="533.13" x2="788.26" y2="469.46"/><circle class="cls-2" cx="713.02" cy="316" r="3.18"/><line class="cls-3" x1="464.3" y1="533.13" x2="713.02" y2="316"/><circle class="cls-2" cx="400.62" cy="209.17" r="3.18"/><line class="cls-3" x1="464.3" y1="533.13" x2="400.62" y2="209.17"/><circle class="cls-2" cx="479.19" cy="341.71" r="1.93"/><line class="cls-4" x1="464.3" y1="533.13" x2="479.19" y2="341.71"/><circle class="cls-2" cx="273.19" cy="551.71" r="1.93"/><line class="cls-4" x1="464.3" y1="533.13" x2="273.19" y2="551.71"/><circle class="cls-2" cx="355.68" cy="691.47" r="1.93"/><line class="cls-4" x1="464.3" y1="533.13" x2="355.68" y2="691.47"/><circle class="cls-2" cx="639.09" cy="612.6" r="1.93"/><line class="cls-4" x1="464.3" y1="533.13" x2="639.09" y2="612.6"/><circle class="cls-2" cx="637.53" cy="450.32" r="1.93"/><line class="cls-4" x1="464.3" y1="533.13" x2="637.53" y2="450.32"/><circle class="cls-2" cx="352.66" cy="376.92" r="1.93"/><line class="cls-4" x1="464.3" y1="533.13" x2="352.66" y2="376.92"/><circle class="cls-2" cx="482.87" cy="724.24" r="1.93"/><line class="cls-4" x1="464.3" y1="533.13" x2="482.87" y2="724.24"/><circle class="cls-2" cx="278.36" cy="485.22" r="1.93"/><line class="cls-4" x1="464.3" y1="533.13" x2="278.36" y2="485.22"/><circle class="cls-2" cx="308.08" cy="644.77" r="1.93"/><line class="cls-4" x1="464.3" y1="533.13" x2="308.08" y2="644.77"/><circle class="cls-2" cx="449.4" cy="724.56" r="1.93"/><line class="cls-4" x1="464.3" y1="533.13" x2="449.4" y2="724.56"/><circle class="cls-2" cx="601.37" cy="667.59" r="1.93"/><line class="cls-4" x1="464.3" y1="533.13" x2="601.37" y2="667.59"/><circle class="cls-2" cx="655.41" cy="514.56" r="1.93"/><line class="cls-4" x1="464.3" y1="533.13" x2="655.41" y2="514.56"/><circle class="cls-2" cx="572.91" cy="374.8" r="1.93"/><line class="cls-4" x1="464.3" y1="533.13" x2="572.91" y2="374.8"/><circle class="cls-2" cx="412.82" cy="348.16" r="1.93"/><line class="cls-4" x1="464.3" y1="533.13" x2="412.82" y2="348.16"/><circle class="cls-2" cx="291.07" cy="615.95" r="1.93"/><line class="cls-4" x1="464.3" y1="533.13" x2="291.07" y2="615.95"/><circle class="cls-2" cx="247.17" cy="284.41" r="3.18"/><line class="cls-3" x1="464.3" y1="533.13" x2="247.17" y2="284.41"/><circle class="cls-2" cx="140.33" cy="596.81" r="3.18"/><line class="cls-3" x1="464.3" y1="533.13" x2="140.33" y2="596.81"/><circle class="cls-2" cx="357.46" cy="845.53" r="3.18"/><line class="cls-3" x1="464.3" y1="533.13" x2="357.46" y2="845.53"/><circle class="cls-2" cx="527.98" cy="857.1" r="3.18"/><line class="cls-3" x1="464.3" y1="533.13" x2="527.98" y2="857.1"/><circle class="cls-2" cx="776.7" cy="639.97" r="3.18"/><line class="cls-3" x1="464.3" y1="533.13" x2="776.7" y2="639.97"/><circle class="cls-2" cx="59.73" cy="280.17" r="7.5"/><line class="cls-5" x1="464.3" y1="533.13" x2="59.73" y2="280.17"/><circle class="cls-2" cx="144.92" cy="887.63" r="7.5"/><line class="cls-5" x1="464.3" y1="533.13" x2="144.92" y2="887.63"/><circle class="cls-2" cx="757.95" cy="909.21" r="7.5"/><line class="cls-5" x1="464.3" y1="533.13" x2="757.95" y2="909.21"/><circle class="cls-2" cx="940.27" cy="566.56" r="7.5"/><line class="cls-5" x1="464.3" y1="533.13" x2="940.27" y2="566.56"/><rect class="cls-6" x="672.9" y="53.41" width="75.7" height="11.6"/><rect class="cls-6" x="672.9" y="73.39" width="132.04" height="11.6"/><rect class="cls-6" x="672.9" y="93.36" width="112.36" height="11.6"/><rect class="cls-6" x="672.9" y="122.31" width="39.34" height="11.6"/><rect class="cls-6" x="672.9" y="142.63" width="45.32" height="11.6"/><circle class="cls-7" cx="643.17" cy="90.79" r="15"/></svg>