<svg id="Laag_1" data-name="Laag 1" xmlns="http://www.w3.org/2000/svg" xmlns:xlink="http://www.w3.org/1999/xlink" viewBox="0 0 1000 1000"><defs><style>.cls-1{fill:url(#Naamloos_verloop_62);}.cls-2{fill:#1a1a1a;}.cls-3{fill:#f2f2f2;}.cls-4,.cls-7{fill:#333;}.cls-4{stroke:#000;stroke-width:0.26px;}.cls-4,.cls-5,.cls-8{stroke-miterlimit:10;}.cls-5,.cls-8{fill:none;stroke:#1a1a1a;}.cls-5{stroke-width:0.35px;}.cls-6{fill:#666;}.cls-8{stroke-width:0.25px;}.cls-9{fill:gray;}</style><linearGradient id="Naamloos_verloop_62" x1="600.29" y1="766.97" x2="600.29" y2="434.27" gradientUnits="userSpaceOnUse"><stop offset="0" stop-color="#333"/><stop offset="0.07" stop-color="#3f3f3f"/><stop offset="0.22" stop-color="#555"/><stop offset="0.37" stop-color="#626262"/><stop offset="0.51" stop-color="#666"/></linearGradient></defs><polygon class="cls-1" points="600.29 434.27 600.29 434.27 494.4 766.97 706.17 766.97 600.29 434.27"/><rect class="cls-2" x="225.71" y="172.34" width="749.16" height="533.97" rx="9.8"/><path d="M965.07,172.47a9.68,9.68,0,0,1,9.67,9.66V696.51a9.68,9.68,0,0,1-9.67,9.67H235.5a9.68,9.68,0,0,1-9.66-9.67V182.13a9.67,9.67,0,0,1,9.66-9.66H965.07m0-.26H235.5a9.94,9.94,0,0,0-9.92,9.92V696.51a10,10,0,0,0,9.92,9.93H965.07a10,10,0,0,0,9.93-9.93V182.13a10,10,0,0,0-9.93-9.92Z"/><rect class="cls-3" x="234.45" y="180.43" width="731.68" height="517.78" rx="5.07"/><rect class="cls-4" x="492.52" y="762.88" width="215.53" height="19.22" rx="1.41"/><polygon class="cls-5" points="503.13 513.69 515.87 565.64 557.78 540.56 536.39 540.29 503.13 513.69"/><polygon class="cls-5" points="499.19 473.34 783.28 269.61 501.77 508.87 489.47 478.4 537.06 331.89 499.19 473.34"/><polyline class="cls-5" points="557.78 540.56 515.87 565.64 503.13 513.69"/><path class="cls-5" d="M560.82,537.82V528.4s13.43-15.24,1.6-28.47L523,499.34l83.79-28.09,20.11,18.45h0l45.72,6.82-56.81,11.89Z"/><polygon class="cls-5" points="708.46 339.85 612.07 466.63 629.48 482.54 631.09 473.5 708.46 339.85"/><rect class="cls-6" x="90.17" y="334.9" width="4.72" height="49.31" rx="1.42"/><rect class="cls-6" x="90.17" y="392.97" width="4.72" height="49.31" rx="1.42"/><rect class="cls-6" x="367.74" y="303.83" width="61.78" height="4.26" rx="1.51"/><rect class="cls-2" x="92.62" y="306.05" width="362.46" height="500.45" rx="22.39"/><path d="M432.69,306.14a22.32,22.32,0,0,1,22.3,22.3V784.12a22.33,22.33,0,0,1-22.3,22.3H115a22.33,22.33,0,0,1-22.3-22.3V328.44a22.32,22.32,0,0,1,22.3-22.3H432.69m0-.18H115a22.54,22.54,0,0,0-22.48,22.48V784.12A22.54,22.54,0,0,0,115,806.59H432.69a22.54,22.54,0,0,0,22.48-22.47V328.44A22.55,22.55,0,0,0,432.69,306Z"/><rect class="cls-3" x="102.8" y="315.32" width="342.1" height="481.91" rx="13.49"/><rect x="233.29" y="785.83" width="81.13" height="3.08" rx="1.34"/><rect class="cls-7" x="256.89" y="308.94" width="33.91" height="3.08" rx="1.54"/><polygon class="cls-8" points="233.93 605.34 240.58 632.45 262.44 619.36 251.28 619.22 233.93 605.34"/><polygon class="cls-8" points="231.87 584.29 380.12 477.97 233.22 602.83 226.8 586.92 251.63 510.48 231.87 584.29"/><polyline class="cls-8" points="262.44 619.36 240.58 632.45 233.93 605.34"/><path class="cls-8" d="M264,617.93V613s7-8,.84-14.86l-20.6-.31L288,583.2l10.5,9.62h0l23.85,3.56-29.64,6.21Z"/><polygon class="cls-8" points="341.07 514.63 290.78 580.79 299.86 589.09 300.7 584.37 341.07 514.63"/><rect class="cls-6" x="208.62" y="538.2" width="3.54" height="51.36" rx="1.25"/><rect class="cls-6" x="25" y="538.2" width="3.54" height="37.01" rx="1.07"/><rect class="cls-6" x="25.71" y="497.2" width="3.54" height="21.18" rx="0.51"/><rect class="cls-6" x="25" y="581.79" width="3.54" height="37.01" rx="1.07"/><rect class="cls-9" x="26.77" y="458.13" width="183.62" height="369.66" rx="23.24"/><rect class="cls-2" x="27.84" y="459.08" width="181.49" height="367.75" rx="22.97"/><path d="M186.35,459.17a22.92,22.92,0,0,1,22.89,22.89v321.8a22.91,22.91,0,0,1-22.89,22.89H50.81a22.91,22.91,0,0,1-22.89-22.89V482.06a22.92,22.92,0,0,1,22.89-22.89H186.35m0-.17H50.81a23.13,23.13,0,0,0-23.06,23.06v321.8a23.13,23.13,0,0,0,23.06,23.06H186.35a23.13,23.13,0,0,0,23.06-23.06V482.06A23.13,23.13,0,0,0,186.35,459Z"/><rect class="cls-7" x="104.48" y="466.12" width="28.19" height="2.56" rx="1.28"/><path class="cls-3" d="M186.53,463.94H169.61a2.56,2.56,0,0,0-2.56,2.56v2a7.3,7.3,0,0,1-7.28,7.28H77.39a7.3,7.3,0,0,1-7.28-7.28v-2a2.56,2.56,0,0,0-2.57-2.56H50.63a18.19,18.19,0,0,0-18.14,18.14V803.84A18.19,18.19,0,0,0,50.63,822h135.9a18.19,18.19,0,0,0,18.14-18.14V482.08A18.19,18.19,0,0,0,186.53,463.94Z"/><rect x="84.86" y="814.26" width="67.44" height="2.56" rx="1.11"/><polygon class="cls-8" points="91.41 662.07 95.06 676.97 107.09 669.78 100.95 669.7 91.41 662.07"/><polygon class="cls-8" points="90.28 650.49 171.8 592.02 91.02 660.68 87.49 651.94 101.14 609.9 90.28 650.49"/><polyline class="cls-8" points="107.09 669.78 95.06 676.97 91.41 662.07"/><path class="cls-8" d="M108,669v-2.7s3.86-4.38.46-8.17L97.09,658l24-8.06,5.77,5.29h0l13.12,2-16.3,3.41Z"/><polygon class="cls-8" points="150.33 612.18 122.67 648.56 127.66 653.13 128.13 650.53 150.33 612.18"/></svg>