<svg id="Laag_1" data-name="Laag 1" xmlns="http://www.w3.org/2000/svg" viewBox="0 0 105.73 99.21"><defs><style>.cls-1{fill:#1a1a1a;}</style></defs><title>web-Logo-met-patroon</title><path class="cls-1" d="M13.34,78.9l9.58,7.66.09.07h.11l5.47.06L17,93.67,13.34,78.9M12.78,78l4,16.16,13-7.8-6.65-.09L12.78,78Z"/><path class="cls-1" d="M93.52,7.11,12.5,76,8.89,67,19.72,33.7,11.23,65.39l-.24.9.76-.54L93.52,7.11m6.4-5L11.56,65.48l11.78-44L8.53,67.05l3.83,9.48L99.92,2.11Z"/><path class="cls-1" d="M44.93,65.21,51,70.81l.07.07.11,0,12.37,1.84L47.75,76.06h0l0,0L31.06,85V82.72a9.68,9.68,0,0,0,1.61-2.89,6,6,0,0,0-1.2-6.31l-.09-.11h-.15l-10.32-.15,24-8.05m.08-.38L19,73.56l12.27.19c3.68,4.11-.49,8.85-.49,8.85v2.93l17.08-9.14,17.67-3.7L51.26,70.56,45,64.83Z"/><path class="cls-1" d="M73.69,28.4l-21.4,37,0,0v.06l-.39,2.21-4.74-4.33L73.69,28.4m3-4.44-30,39.43,5.41,5,.5-2.81L76.65,24Z"/></svg>