<svg id="Laag_1" data-name="Laag 1" xmlns="http://www.w3.org/2000/svg" xmlns:xlink="http://www.w3.org/1999/xlink" viewBox="0 0 1000 1000"><defs><style>.cls-1{fill:none;}.cls-2{fill:#b3b3b3;}.cls-3{fill:#e6e6e6;}.cls-4{clip-path:url(#clip-path);}.cls-5{fill:url(#Naamloos_verloop_16);}.cls-6{fill:url(#Naamloos_verloop_14);}.cls-7{fill:url(#Naamloos_verloop_19);}.cls-8{fill:#333;}.cls-9{fill:url(#Naamloos_verloop_6);}.cls-10{fill:url(#Naamloos_verloop_11);}.cls-11,.cls-14,.cls-15{opacity:0.5;}.cls-12{fill:#ccc;}.cls-13{fill:url(#Naamloos_verloop_21);}.cls-14{fill:url(#Naamloos_verloop_38);}.cls-15{fill:url(#Naamloos_verloop_33);}.cls-16{fill:#4d4d4d;}.cls-17,.cls-18{opacity:0.4;}.cls-17{fill:url(#Naamloos_verloop_45);}.cls-18{fill:url(#Naamloos_verloop_49);}.cls-19{fill:#fff;}</style><clipPath id="clip-path"><path class="cls-1" d="M470.77,130.05c-48.24,11.78-81.14,56.61-81.14,106.26v78.77a101.22,101.22,0,0,0,36.52,77.85l15.24,12.67a56.23,56.23,0,0,0,36,13h41.51a56.25,56.25,0,0,0,36-13l15.24-12.67a101.22,101.22,0,0,0,36.52-77.85V235.19C606.58,166.37,542.51,112.52,470.77,130.05Z"/></clipPath><linearGradient id="Naamloos_verloop_16" x1="153.56" y1="-432.15" x2="211" y2="-463.51" gradientTransform="translate(186.3 785.61) rotate(7.68)" gradientUnits="userSpaceOnUse"><stop offset="0.1" stop-color="#4d4d4d" stop-opacity="0"/><stop offset="0.21" stop-color="#565656" stop-opacity="0.07"/><stop offset="0.4" stop-color="#6e6e6e" stop-opacity="0.26"/><stop offset="0.66" stop-color="#959595" stop-opacity="0.57"/><stop offset="0.99" stop-color="#cacaca" stop-opacity="0.98"/><stop offset="1" stop-color="#ccc"/></linearGradient><linearGradient id="Naamloos_verloop_14" x1="-12222.74" y1="1235.71" x2="-12165.3" y2="1204.36" gradientTransform="matrix(-0.99, 0.13, 0.13, 0.99, -11678.27, 785.61)" xlink:href="#Naamloos_verloop_16"/><linearGradient id="Naamloos_verloop_19" x1="498.24" y1="424.71" x2="498.24" y2="385.18" gradientUnits="userSpaceOnUse"><stop offset="0" stop-color="#4d4d4d" stop-opacity="0"/><stop offset="0.06" stop-color="#5b5b5b" stop-opacity="0.11"/><stop offset="0.23" stop-color="#838383" stop-opacity="0.43"/><stop offset="0.38" stop-color="#a3a3a3" stop-opacity="0.67"/><stop offset="0.52" stop-color="#b9b9b9" stop-opacity="0.85"/><stop offset="0.63" stop-color="#c7c7c7" stop-opacity="0.96"/><stop offset="0.7" stop-color="#ccc"/></linearGradient><linearGradient id="Naamloos_verloop_6" x1="390.64" y1="201.37" x2="442.88" y2="201.37" gradientTransform="matrix(1, 0, 0, 1, 0, 0)" xlink:href="#Naamloos_verloop_16"/><linearGradient id="Naamloos_verloop_11" x1="-14172.14" y1="201.37" x2="-14119.9" y2="201.37" gradientTransform="matrix(-1, 0, 0, 1, -13566.57, 0)" gradientUnits="userSpaceOnUse"><stop offset="0.1" stop-color="#4d4d4d" stop-opacity="0"/><stop offset="0.2" stop-color="#565656" stop-opacity="0.07"/><stop offset="0.4" stop-color="#6e6e6e" stop-opacity="0.26"/><stop offset="0.66" stop-color="#959595" stop-opacity="0.57"/><stop offset="0.99" stop-color="#cacaca" stop-opacity="0.98"/><stop offset="1" stop-color="#ccc"/></linearGradient><linearGradient id="Naamloos_verloop_21" x1="498.1" y1="385.18" x2="498.1" y2="344.7" xlink:href="#Naamloos_verloop_19"/><linearGradient id="Naamloos_verloop_38" x1="605.72" y1="250.92" x2="622.81" y2="245.4" gradientUnits="userSpaceOnUse"><stop offset="0" stop-color="#e6e6e6" stop-opacity="0"/><stop offset="0.07" stop-color="#e3e3e3" stop-opacity="0.11"/><stop offset="0.25" stop-color="#dcdcdc" stop-opacity="0.38"/><stop offset="0.42" stop-color="#d6d6d6" stop-opacity="0.6"/><stop offset="0.59" stop-color="#d2d2d2" stop-opacity="0.78"/><stop offset="0.74" stop-color="#cfcfcf" stop-opacity="0.9"/><stop offset="0.89" stop-color="#cdcdcd" stop-opacity="0.97"/><stop offset="1" stop-color="#ccc"/></linearGradient><linearGradient id="Naamloos_verloop_33" x1="-13074.05" y1="250.92" x2="-13056.95" y2="245.4" gradientTransform="matrix(-1, 0, 0, 1, -12683.82, 0)" gradientUnits="userSpaceOnUse"><stop offset="0" stop-color="#e6e6e6" stop-opacity="0"/><stop offset="0.04" stop-color="#e4e4e4" stop-opacity="0.06"/><stop offset="0.23" stop-color="#ddd" stop-opacity="0.34"/><stop offset="0.41" stop-color="#d7d7d7" stop-opacity="0.58"/><stop offset="0.59" stop-color="#d2d2d2" stop-opacity="0.76"/><stop offset="0.75" stop-color="#cfcfcf" stop-opacity="0.89"/><stop offset="0.89" stop-color="#cdcdcd" stop-opacity="0.97"/><stop offset="1" stop-color="#ccc"/></linearGradient><linearGradient id="Naamloos_verloop_45" x1="131.68" y1="663.62" x2="293.71" y2="663.62" gradientUnits="userSpaceOnUse"><stop offset="0.24" stop-color="#e6e6e6" stop-opacity="0"/><stop offset="0.33" stop-color="#e4e4e4" stop-opacity="0.07"/><stop offset="0.49" stop-color="#dfdfdf" stop-opacity="0.26"/><stop offset="0.71" stop-color="#d7d7d7" stop-opacity="0.57"/><stop offset="0.99" stop-color="#ccc" stop-opacity="0.98"/><stop offset="1" stop-color="#ccc"/></linearGradient><linearGradient id="Naamloos_verloop_49" x1="-13805.01" y1="663.62" x2="-13642.97" y2="663.62" gradientTransform="matrix(-1, 0, 0, 1, -12938.19, 0)" gradientUnits="userSpaceOnUse"><stop offset="0.23" stop-color="#e6e6e6" stop-opacity="0"/><stop offset="0.31" stop-color="#e4e4e4" stop-opacity="0.07"/><stop offset="0.48" stop-color="#dfdfdf" stop-opacity="0.26"/><stop offset="0.71" stop-color="#d7d7d7" stop-opacity="0.57"/><stop offset="0.99" stop-color="#ccc" stop-opacity="0.98"/><stop offset="1" stop-color="#ccc"/></linearGradient></defs><circle class="cls-2" cx="498.1" cy="119.61" r="36.14"/><path class="cls-2" d="M498.1,119.61s-22.21-8.11-12.92-33.75C485.18,85.86,470.92,111.75,498.1,119.61Z"/><path class="cls-2" d="M498.1,119.61s-8.1,22.21-33.75,12.93C464.35,132.54,490.24,146.79,498.1,119.61Z"/><path class="cls-2" d="M498.1,119.61s22.21,8.11,12.93,33.75C511,153.36,525.29,127.48,498.1,119.61Z"/><path class="cls-2" d="M498.1,119.61s8.11-22.21,33.76-12.92C531.86,106.69,506,92.43,498.1,119.61Z"/><path class="cls-3" d="M470.76,130.05c-48.23,11.78-81.13,56.61-81.13,106.26v72a115.7,115.7,0,0,0,41.73,89l10,8.33a56.23,56.23,0,0,0,36,13h41.51a56.25,56.25,0,0,0,36-13l10-8.33a115.69,115.69,0,0,0,41.74-89v-73.1C606.58,166.37,542.51,112.52,470.76,130.05Z"/><path class="cls-3" d="M400.7,228.42s-41.4-36.4-31.39,23.65c0,0,4.77,22.29,10.46,39.58s14.56-1.82,14.56-1.82Z"/><path class="cls-3" d="M595.51,228.42s41.4-36.4,31.39,23.65c0,0-4.78,22.29-10.46,39.58s-14.56-1.82-14.56-1.82Z"/><g class="cls-4"><path class="cls-5" d="M394.46,370.9l-4.83-22.73,2.87-56.88,49.3,72.55c8.27,9.38,13.24,20.2,14.39,31.32,1.1,10.61,2.37,23.34,2.77,29.22l-4.07,19-22.08-15.4-19.26-18-12.93-19.43Z"/><path class="cls-6" d="M601.74,370.9l4.84-22.73-2.87-56.88-49.3,72.55c-8.27,9.38-13.25,20.2-14.4,31.32-1.09,10.61-2.36,23.34-2.76,29.22l4.07,19,22.08-15.4,19.26-18,12.93-19.43Z"/><path class="cls-7" d="M540.12,385.18c-10.31,16.19-19.43,16.38-25.55,16.38-3.61,0-5.22-5.68-6-10.36a79.64,79.64,0,0,1-20.77,0c-.73,4.68-2.34,10.36-6,10.36-6.11,0-15.23-.19-25.55-16.38,0,0,4.59,27.95,4.15,39.53H536C535.54,413.13,540.12,385.18,540.12,385.18Z"/></g><rect class="cls-8" x="442.88" y="141.93" width="110.45" height="44.72"/><path class="cls-9" d="M406.88,176.57l36,18s-35.12,16.26-40.18,31.58l-12.06-4.77S393.8,197.86,406.88,176.57Z"/><path class="cls-10" d="M589.33,176.57l-36,18s35.12,16.26,40.17,31.58l12.07-4.77S602.41,197.86,589.33,176.57Z"/><path class="cls-2" d="M501.24,124.87h-73.7c-14.09,3.59-33.35,28.14-31.83,34.8,0,9.75,8.31,20.64,13.41,22.54l19.29,9.35a34.85,34.85,0,0,0,15.25,3.53h57.58Z"/><path class="cls-2" d="M495,124.87h73.71c14.09,3.59,33.34,28.14,31.83,34.8,0,9.75-8.31,20.64-13.41,22.54l-19.29,9.35a34.88,34.88,0,0,1-15.25,3.53H495Z"/><g class="cls-11"><path class="cls-12" d="M550.55,195.09s33.33-45.71,6.28-70.22C556.83,124.87,592.28,139.84,550.55,195.09Z"/><path class="cls-12" d="M445.66,195.09s-33.33-45.71-6.28-70.22C439.38,124.87,403.93,139.84,445.66,195.09Z"/><path class="cls-12" d="M504.84,195.09s14.28-49.21,0-70.22C504.84,124.87,525.67,146.1,504.84,195.09Z"/><path class="cls-12" d="M491.37,195.09s-14.28-49.21,0-70.22C491.37,124.87,470.53,146.1,491.37,195.09Z"/></g><path class="cls-13" d="M532.87,353.14s-26.42-2-31.56-8.44c0,0-.4,5.33-3.21,6.68-2.8-1.35-3.21-6.68-3.21-6.68-5.13,6.41-31.55,8.44-31.55,8.44-9.9,7.58-6.41,32-6.41,32s5.24-21.55,14-24.46c6.75-2.25,20.1-2.07,25.82-1.87V359l1.37-.07,1.37.07v-.12c5.73-.2,19.07-.38,25.83,1.87,8.73,2.91,14,24.46,14,24.46S542.77,360.72,532.87,353.14Z"/><path class="cls-14" d="M604.08,232.12s22.57-19.85,17.12,12.9c0,0-2.61,12.16-5.71,21.58s-7.94-1-7.94-1Z"/><path class="cls-15" d="M391.87,232.12s-22.58-19.85-17.12,12.9c0,0,2.6,12.16,5.7,21.58s7.94-1,7.94-1Z"/><path class="cls-1" d="M323.12,785.3l-32.91-124s30.55,122.59-101.76,156.33c0,0,55.34,12.28,88.49,53.49Z"/><path class="cls-1" d="M709.79,661.32l-32.91,124,46.18,85.84c33.15-41.21,88.49-53.49,88.49-53.49C679.24,783.91,709.79,661.32,709.79,661.32Z"/><polygon class="cls-1" points="689.34 916.54 500 811.55 310.66 916.54 689.34 916.54"/><path class="cls-3" d="M500,811.55l-7.83-4.34,7.83-87-2.83-31.41H468.76l-48.4-229.65c-73.29,1.07-167.25,55.2-167.25,55.2S64.46,734.89,50.15,827c-1.4,9,7.27,26.52,11.29,34.71,8.69,17.69,17.76,26.05,66.31,42.63l35.72,12.24H310.66Zm-311.55,6.1c132.31-33.74,101.76-156.33,101.76-156.33l32.91,124-46.18,85.84C243.79,829.93,188.45,817.65,188.45,817.65Z"/><path class="cls-3" d="M949.85,827c-14.31-92.07-203-312.61-203-312.61s-94-54.13-167.25-55.2L531.24,688.8H502.83L500,720.21l7.83,87L500,811.55l189.34,105H836.53l35.72-12.24c48.55-16.58,57.62-24.94,66.31-42.63C942.58,853.48,951.25,836,949.85,827ZM723.06,871.14,676.88,785.3l32.91-124S679.24,783.91,811.55,817.65C811.55,817.65,756.21,829.93,723.06,871.14Z"/><polygon class="cls-16" points="500 811.55 507.83 807.21 500 720.21 492.17 807.21 500 811.55"/><rect class="cls-2" x="479.31" y="459.15" width="37.59" height="30.94" rx="5.48"/><polygon class="cls-2" points="504.04 495.33 498.1 495.33 492.17 495.33 469.71 608.03 498.1 656.37 526.5 608.03 504.04 495.33"/><path class="cls-17" d="M290.21,661.32s-34.43-68.22-37.1-147L131.68,671.51s84.83,111.3,72.73,141.38C204.41,812.89,314.5,778.32,290.21,661.32Z"/><path class="cls-18" d="M708.28,661.32s34.43-68.22,37.11-147L866.82,671.51S782,782.81,794.09,812.89C794.09,812.89,684,778.32,708.28,661.32Z"/><polygon class="cls-2" points="566.98 632.18 433.02 632.18 229.54 632.18 248.5 916.54 433.02 916.54 566.98 916.54 751.5 916.54 770.46 632.18 566.98 632.18"/><polygon class="cls-19" points="431.25 823.93 437.82 850.73 459.44 837.79 448.41 837.66 431.25 823.93"/><polygon class="cls-19" points="429.22 803.11 575.8 697.99 430.55 821.44 424.2 805.72 448.76 730.13 429.22 803.11"/><polygon class="cls-19" points="431.25 823.93 439.64 846.29 459.44 837.79 437.82 850.73 431.25 823.93"/><polygon class="cls-19" points="426.51 811.6 435.71 808.16 575.73 697.99 430.48 821.44 426.51 811.6"/><polygon class="cls-19" points="433.35 802.39 575.73 697.99 429.22 803.11 448.76 730.13 428.45 802.49 428.92 803.72 433.35 802.39"/><path class="cls-19" d="M461,836.38v-4.86s6.93-7.86.82-14.69l-20.36-.3L484.71,802l10.38,9.52h0l23.58,3.52-29.31,6.14Z"/><polygon class="cls-19" points="484.71 802.03 487.77 811.89 494.6 815.82 483.67 819.21 461.01 836.38 489.36 821.21 518.67 815.07 495.09 811.55 495.09 811.55 484.71 802.03"/><path class="cls-19" d="M484.71,802l-43.23,14.5,20.36.3s6.19,6.07-.82,14.69v4.86l2.07-4.32s7.51-5.65,1.16-16.24l-1.16-1.13-10.21.33Z"/><polygon class="cls-19" points="537.19 734.24 487.46 799.65 496.44 807.86 497.27 803.2 537.19 734.24"/><polygon class="cls-19" points="537.19 734.24 494.95 802.84 496.44 807.86 497.27 803.2 537.19 734.24"/><polygon class="cls-19" points="537.19 734.24 488.54 800.63 487.46 799.65 537.19 734.24"/></svg>