<svg id="Laag_1" data-name="Laag 1" xmlns="http://www.w3.org/2000/svg" xmlns:xlink="http://www.w3.org/1999/xlink" viewBox="0 0 1000 1000"><defs><style>.cls-1{fill:url(#Naamloos_verloop_109);}.cls-2{fill:#c1272d;}.cls-3{fill:url(#Naamloos_verloop_72);}.cls-4{fill:#666;}.cls-5{fill:url(#Naamloos_verloop_72-2);}.cls-6{fill:url(#Naamloos_verloop_69);}.cls-7{fill:url(#Naamloos_verloop_69-2);}.cls-8{fill:url(#Naamloos_verloop_104);}.cls-9{fill:url(#Naamloos_verloop_73);}.cls-10{fill:url(#Naamloos_verloop_107);}.cls-11{fill:url(#Naamloos_verloop_102);}</style><radialGradient id="Naamloos_verloop_109" cx="327.7" cy="611.49" r="57.62" gradientUnits="userSpaceOnUse"><stop offset="0"/><stop offset="0.04" stop-color="#1e0607"/><stop offset="0.1" stop-color="#490f11"/><stop offset="0.16" stop-color="#6e161a"/><stop offset="0.23" stop-color="#8c1c21"/><stop offset="0.3" stop-color="#a32126"/><stop offset="0.37" stop-color="#b4242a"/><stop offset="0.46" stop-color="#be262c"/><stop offset="0.56" stop-color="#c1272d"/><stop offset="0.63" stop-color="#d16064"/><stop offset="0.7" stop-color="#df9093"/><stop offset="0.76" stop-color="#ebb8ba"/><stop offset="0.83" stop-color="#f4d7d8"/><stop offset="0.89" stop-color="#faedee"/><stop offset="0.95" stop-color="#fefafb"/><stop offset="1" stop-color="#fff"/></radialGradient><linearGradient id="Naamloos_verloop_72" x1="560.46" y1="227.94" x2="154.15" y2="592.43" gradientUnits="userSpaceOnUse"><stop offset="0" stop-color="#c1272d"/><stop offset="0.51" stop-color="#c3292d"/><stop offset="0.7" stop-color="#c9302b"/><stop offset="0.83" stop-color="#d43b29"/><stop offset="0.94" stop-color="#e44c26"/><stop offset="1" stop-color="#f15a24"/></linearGradient><linearGradient id="Naamloos_verloop_72-2" x1="265.8" y1="734.45" x2="217.61" y2="834.6" xlink:href="#Naamloos_verloop_72"/><linearGradient id="Naamloos_verloop_69" x1="175.18" y1="435.27" x2="834.69" y2="435.27" gradientUnits="userSpaceOnUse"><stop offset="0" stop-color="#c1272d"/><stop offset="0.01" stop-color="#be272d"/><stop offset="0.1" stop-color="#942b2f"/><stop offset="0.19" stop-color="#712e30"/><stop offset="0.29" stop-color="#563032"/><stop offset="0.39" stop-color="#423232"/><stop offset="0.49" stop-color="#373333"/><stop offset="0.59" stop-color="#333"/></linearGradient><linearGradient id="Naamloos_verloop_69-2" x1="238.9" y1="656.94" x2="627.57" y2="134.79" xlink:href="#Naamloos_verloop_69"/><linearGradient id="Naamloos_verloop_104" x1="343.62" y1="700.24" x2="576.52" y2="687.25" gradientUnits="userSpaceOnUse"><stop offset="0" stop-color="#c1272d"/><stop offset="1" stop-color="#333"/></linearGradient><linearGradient id="Naamloos_verloop_73" x1="358.7" y1="698.72" x2="167.69" y2="703.32" gradientUnits="userSpaceOnUse"><stop offset="0" stop-color="#c1272d"/><stop offset="0.13" stop-color="#a8292e"/><stop offset="0.42" stop-color="#762d30"/><stop offset="0.67" stop-color="#513032"/><stop offset="0.87" stop-color="#3b3233"/><stop offset="1" stop-color="#333"/></linearGradient><linearGradient id="Naamloos_verloop_107" x1="477.7" y1="485.34" x2="664.37" y2="485.34" gradientUnits="userSpaceOnUse"><stop offset="0" stop-color="#ed1c24"/><stop offset="0.05" stop-color="#de1e25"/><stop offset="0.22" stop-color="#aa2429"/><stop offset="0.4" stop-color="#802a2d"/><stop offset="0.57" stop-color="#5e2e30"/><stop offset="0.73" stop-color="#463131"/><stop offset="0.87" stop-color="#383233"/><stop offset="1" stop-color="#333"/></linearGradient><linearGradient id="Naamloos_verloop_102" x1="444.58" y1="469.39" x2="664.37" y2="469.39" gradientUnits="userSpaceOnUse"><stop offset="0" stop-color="#c1272d"/><stop offset="0.27" stop-color="#9f2a2e"/><stop offset="0.86" stop-color="#483132"/><stop offset="1" stop-color="#333"/></linearGradient></defs><circle class="cls-1" cx="327.7" cy="611.49" r="57.62"/><polygon class="cls-2" points="196.15 719.08 225.2 837.54 320.76 780.36 271.99 779.75 196.15 719.08"/><polygon class="cls-3" points="164.78 638.6 273.31 304.44 273.72 304.56 187.52 626.55 834.88 162.29 835.14 162.62 192.96 708.44 164.78 638.6"/><path class="cls-4" d="M835,162.46,193,708.09l-28-69.5L273.52,304.51,187.16,627.07,835,162.46m-.25-.35L187.87,626l86.06-321.41-.82-.24L164.6,638.46l0,.15.06.14,28,69.5.22.54.45-.38,642-545.63-.52-.67Z"/><polygon class="cls-5" points="196.15 719.08 233.22 817.89 320.76 780.36 225.2 837.54 196.15 719.08"/><polygon class="cls-6" points="175.18 664.58 215.87 649.36 834.69 162.46 192.74 708.09 175.18 664.58"/><polygon class="cls-7" points="205.42 623.87 834.69 162.46 187.16 627.07 273.52 304.51 183.77 624.31 185.86 629.77 205.42 623.87"/><path class="cls-2" d="M327.7,774.1V752.61s30.63-34.75,3.66-64.92l-90-1.33L432.41,622.3l45.87,42.07h0l104.24,15.55L453,707Z"/><polygon class="cls-8" points="432.41 622.3 445.94 665.86 476.13 683.21 427.83 698.2 327.7 774.1 452.98 707.04 582.52 679.92 478.28 664.37 478.28 664.37 432.41 622.3"/><path class="cls-9" d="M432.41,622.3,241.34,686.36l90,1.33s27.36,26.86-3.66,64.92V774.1L336.87,755s33.21-25,5.12-71.79l-5.12-5-45.12,1.47Z"/><polygon class="cls-2" points="664.37 322.66 444.58 611.77 484.27 648.03 487.94 627.43 664.37 322.66"/><polygon class="cls-10" points="664.37 322.66 477.7 625.86 484.27 648.03 487.94 627.43 664.37 322.66"/><polygon class="cls-11" points="664.37 322.66 449.34 616.12 444.58 611.77 664.37 322.66"/></svg>