<svg id="Laag_1" data-name="Laag 1" xmlns="http://www.w3.org/2000/svg" xmlns:xlink="http://www.w3.org/1999/xlink" viewBox="0 0 1000 1000"><defs><style>.cls-1,.cls-12,.cls-2,.cls-3,.cls-4,.cls-5,.cls-6,.cls-7,.cls-8,.cls-9{fill:none;stroke-miterlimit:10;}.cls-1,.cls-12,.cls-2,.cls-3,.cls-4,.cls-5,.cls-6,.cls-7,.cls-8{stroke:#ccc;}.cls-1,.cls-2{stroke-width:0.99px;}.cls-1{stroke-dasharray:19.77;}.cls-3,.cls-4,.cls-5,.cls-6,.cls-7,.cls-8{stroke-width:2.97px;}.cls-4{stroke-dasharray:20.19 20.19;}.cls-5{stroke-dasharray:20.87 20.87;}.cls-6{stroke-dasharray:17.75 17.75;}.cls-7{stroke-dasharray:17.99 17.99;}.cls-8{stroke-dasharray:18.79 18.79;}.cls-9{stroke-width:19.77px;stroke:url(#Naamloos_verloop_128);}.cls-10{fill:#8cc63f;}.cls-11{fill:#fff;}.cls-12{stroke-width:4.94px;}</style><linearGradient id="Naamloos_verloop_128" x1="55.86" y1="503.21" x2="951.21" y2="503.21" gradientUnits="userSpaceOnUse"><stop offset="0" stop-color="#f0f"/><stop offset="0.03" stop-color="#8cc63f"/><stop offset="0.62" stop-color="#333"/><stop offset="1"/></linearGradient></defs><polyline class="cls-1" points="73.85 910.96 127.4 710.99 196.18 583.46 448.25 719.59 588.8 529.18 640.39 245.29 818.07 283.98 951.38 226.66"/><line class="cls-2" x1="290.11" y1="659.08" x2="290.11" y2="925.86"/><line class="cls-2" x1="537.22" y1="337.66" x2="537.22" y2="925.86"/><line class="cls-2" x1="784.33" y1="132.5" x2="784.33" y2="925.86"/><line class="cls-3" x1="61.78" y1="910.96" x2="67.74" y2="903.07"/><polyline class="cls-4" points="79.91 886.97 290.11 608.8 348.25 453.15"/><polyline class="cls-3" points="351.78 443.7 355.24 434.44 363.35 440.09"/><line class="cls-5" x1="380.48" y1="452.01" x2="474.69" y2="517.57"/><polyline class="cls-3" points="483.25 523.53 491.37 529.18 500.12 524.59"/><line class="cls-6" x1="515.85" y1="516.36" x2="633.8" y2="454.6"/><polyline class="cls-3" points="641.66 450.49 650.42 445.9 659.78 449.09"/><line class="cls-7" x1="676.8" y1="454.88" x2="804.5" y2="498.34"/><polyline class="cls-3" points="813.01 501.23 822.37 504.42 825.04 494.9"/><polyline class="cls-8" points="830.12 476.81 865.36 351.33 935.59 302.2"/><line class="cls-3" x1="943.29" y1="296.81" x2="951.38" y2="291.15"/><path class="cls-9" d="M64.83,933.1,192.09,658.22a9.89,9.89,0,0,1,13-4.88l170,75.78a9.89,9.89,0,0,0,13.52-6.29l95.46-330.3a9.88,9.88,0,0,1,7-6.81l174.75-46.41a9.91,9.91,0,0,0,7-6.81l49.43-170.84a9.88,9.88,0,0,1,12.26-6.74L839,185.32a9.87,9.87,0,0,0,10.15-2.92L943.82,75.74"/><path class="cls-10" d="M73.85,946a29.2,29.2,0,1,1,29.2-29.2A29.23,29.23,0,0,1,73.85,946Z"/><path class="cls-11" d="M73.85,891.1a25.74,25.74,0,1,1-25.74,25.73A25.73,25.73,0,0,1,73.85,891.1m0-6.92a32.66,32.66,0,1,0,32.66,32.65,32.69,32.69,0,0,0-32.66-32.65Z"/><circle cx="943.82" cy="75.74" r="29.2"/><path class="cls-11" d="M943.82,50a25.74,25.74,0,1,1-25.74,25.74A25.73,25.73,0,0,1,943.82,50m0-6.92a32.66,32.66,0,1,0,32.66,32.66,32.7,32.7,0,0,0-32.66-32.66Z"/><rect class="cls-11" x="30.44" y="877.99" width="31.33" height="65.93"/><rect class="cls-11" x="58.78" y="926.46" width="45.19" height="23.54"/><polyline class="cls-12" points="448.25 926.46 61.78 926.46 61.78 539.99"/></svg>