<svg id="Laag_1" data-name="Laag 1" xmlns="http://www.w3.org/2000/svg" viewBox="0 0 1000 1000"><defs><style>.cls-1{fill:#666;}.cls-2{fill:gray;}.cls-3{fill:#1a1a1a;}.cls-4,.cls-6{fill:#333;}.cls-5{fill:#e6e6e6;}.cls-6{stroke:#1a1a1a;stroke-miterlimit:10;stroke-width:0.23px;}</style></defs><rect class="cls-1" x="719.21" y="244.95" width="8.62" height="125.05" rx="3.05"/><rect class="cls-1" x="272.17" y="244.95" width="8.62" height="90.12" rx="2.59"/><rect class="cls-1" x="273.9" y="145.13" width="8.62" height="51.57" rx="1.25"/><rect class="cls-1" x="272.17" y="351.07" width="8.62" height="90.12" rx="2.59"/><rect class="cls-2" x="276.48" y="50" width="447.04" height="900" rx="56.58"/><rect class="cls-3" x="279.07" y="52.32" width="441.86" height="895.35" rx="55.94"/><path d="M665,52.53a55.79,55.79,0,0,1,55.73,55.73V891.74A55.79,55.79,0,0,1,665,947.47H335a55.79,55.79,0,0,1-55.73-55.73V108.26A55.79,55.79,0,0,1,335,52.53H665m0-.41H335a56.3,56.3,0,0,0-56.14,56.14V891.74A56.3,56.3,0,0,0,335,947.88H665a56.3,56.3,0,0,0,56.14-56.14V108.26A56.3,56.3,0,0,0,665,52.12Z"/><rect class="cls-4" x="465.68" y="69.46" width="68.64" height="6.24" rx="3.12"/><path class="cls-5" d="M665.43,64.14H624.25A6.24,6.24,0,0,0,618,70.38V75.3A17.77,17.77,0,0,1,600.29,93H399.71A17.77,17.77,0,0,1,382,75.3V70.38a6.24,6.24,0,0,0-6.24-6.24H334.57a44.3,44.3,0,0,0-44.17,44.17V891.69a44.3,44.3,0,0,0,44.17,44.17H665.43a44.3,44.3,0,0,0,44.17-44.17V108.31A44.3,44.3,0,0,0,665.43,64.14Z"/><rect x="417.9" y="917.05" width="164.2" height="6.24" rx="2.71"/><polygon class="cls-6" points="447.44 562.64 455.75 596.51 483.07 580.16 469.13 579.98 447.44 562.64"/><polygon class="cls-6" points="444.87 536.33 630.1 403.49 446.56 559.5 438.54 539.63 469.56 444.11 444.87 536.33"/><polyline class="cls-6" points="483.07 580.16 455.75 596.51 447.44 562.64"/><path class="cls-6" d="M485.06,578.37v-6.14s8.76-9.94,1-18.57l-25.73-.38L515,535l13.12,12h0l29.8,4.44-37,7.76Z"/><polygon class="cls-6" points="581.32 449.3 518.47 531.96 529.82 542.32 530.87 536.43 581.32 449.3"/></svg>