<svg id="Laag_1" data-name="Laag 1" xmlns="http://www.w3.org/2000/svg" xmlns:xlink="http://www.w3.org/1999/xlink" viewBox="0 0 1000 1000"><defs><style>.cls-1{fill:none;}.cls-2{fill:#666;}.cls-3{fill:#3a3a3a;}.cls-4{fill:#4d4d4d;}.cls-5{clip-path:url(#clip-path);}.cls-6{fill:url(#Naamloos_verloop_10);}.cls-7{fill:url(#Naamloos_verloop_10-2);}.cls-8{fill:url(#Naamloos_verloop_8);}.cls-9{fill:#333;}.cls-10{fill:url(#Naamloos_verloop_10-3);}.cls-11{fill:url(#Naamloos_verloop_10-4);}.cls-12,.cls-14,.cls-15{opacity:0.5;}.cls-13{fill:url(#Naamloos_verloop_26);}.cls-14{fill:url(#Naamloos_verloop_239);}.cls-15{fill:url(#Naamloos_verloop_239-2);}.cls-16,.cls-17{opacity:0.4;}.cls-16{fill:url(#Naamloos_verloop_28);}.cls-17{fill:url(#Naamloos_verloop_28-2);}.cls-18{fill:url(#Naamloos_verloop_252);}.cls-19{fill:url(#Naamloos_verloop_255);}.cls-20{fill:#999;}.cls-21{fill:#fff;}</style><clipPath id="clip-path"><path class="cls-1" d="M470.77,130.05c-48.24,11.78-81.14,56.61-81.14,106.26v78.77a101.22,101.22,0,0,0,36.52,77.85l15.24,12.67a56.23,56.23,0,0,0,36,13h41.51a56.25,56.25,0,0,0,36-13l15.24-12.67a101.22,101.22,0,0,0,36.52-77.85V235.19C606.58,166.37,542.51,112.52,470.77,130.05Z"/></clipPath><linearGradient id="Naamloos_verloop_10" x1="1048.72" y1="-83.92" x2="1106.15" y2="-115.27" gradientTransform="translate(-654.32 320.94) rotate(7.68)" gradientUnits="userSpaceOnUse"><stop offset="0.1" stop-color="#4d4d4d" stop-opacity="0"/><stop offset="0.66" stop-color="#303030" stop-opacity="0.56"/><stop offset="1" stop-color="#1a1a1a"/></linearGradient><linearGradient id="Naamloos_verloop_10-2" x1="-5295.47" y1="771.04" x2="-5238.03" y2="739.69" gradientTransform="matrix(-0.99, 0.13, 0.13, 0.99, -4751, 320.94)" xlink:href="#Naamloos_verloop_10"/><linearGradient id="Naamloos_verloop_8" x1="498.24" y1="424.71" x2="498.24" y2="385.18" gradientUnits="userSpaceOnUse"><stop offset="0" stop-color="#4d4d4d" stop-opacity="0"/><stop offset="0.4" stop-color="#2a2a2a" stop-opacity="0.69"/><stop offset="0.7" stop-color="#1a1a1a"/></linearGradient><linearGradient id="Naamloos_verloop_10-3" x1="390.64" y1="201.37" x2="442.88" y2="201.37" gradientTransform="matrix(1, 0, 0, 1, 0, 0)" xlink:href="#Naamloos_verloop_10"/><linearGradient id="Naamloos_verloop_10-4" x1="-8085.49" y1="201.37" x2="-8033.25" y2="201.37" gradientTransform="matrix(-1, 0, 0, 1, -7479.92, 0)" xlink:href="#Naamloos_verloop_10"/><linearGradient id="Naamloos_verloop_26" x1="498.1" y1="385.18" x2="498.1" y2="344.7" gradientUnits="userSpaceOnUse"><stop offset="0" stop-color="#4d4d4d" stop-opacity="0"/><stop offset="0.22" stop-color="#424242" stop-opacity="0.41"/><stop offset="0.51" stop-color="#373737" stop-opacity="0.84"/><stop offset="0.7" stop-color="#333"/></linearGradient><linearGradient id="Naamloos_verloop_239" x1="605.72" y1="250.92" x2="622.81" y2="245.4" gradientUnits="userSpaceOnUse"><stop offset="0" stop-color="#4d4d4d" stop-opacity="0"/><stop offset="0.07" stop-color="#4a4a4a" stop-opacity="0.11"/><stop offset="0.42" stop-color="#3d3d3d" stop-opacity="0.6"/><stop offset="0.74" stop-color="#363636" stop-opacity="0.9"/><stop offset="1" stop-color="#333"/></linearGradient><linearGradient id="Naamloos_verloop_239-2" x1="-6987.41" y1="250.92" x2="-6970.31" y2="245.4" gradientTransform="matrix(-1, 0, 0, 1, -6597.18, 0)" xlink:href="#Naamloos_verloop_239"/><linearGradient id="Naamloos_verloop_28" x1="131.68" y1="663.62" x2="293.71" y2="663.62" gradientUnits="userSpaceOnUse"><stop offset="0.1" stop-color="#4d4d4d" stop-opacity="0"/><stop offset="0.42" stop-color="#464646" stop-opacity="0.29"/><stop offset="1" stop-color="#333"/></linearGradient><linearGradient id="Naamloos_verloop_28-2" x1="-7718.37" y1="663.62" x2="-7556.33" y2="663.62" gradientTransform="matrix(-1, 0, 0, 1, -6851.55, 0)" xlink:href="#Naamloos_verloop_28"/><linearGradient id="Naamloos_verloop_252" x1="310.24" y1="633.54" x2="751.12" y2="945.19" gradientUnits="userSpaceOnUse"><stop offset="0" stop-color="#4d4d4d"/><stop offset="0.26" stop-color="#474747"/><stop offset="0.59" stop-color="#373737"/><stop offset="0.96" stop-color="#1d1d1d"/><stop offset="1" stop-color="#1a1a1a"/></linearGradient><linearGradient id="Naamloos_verloop_255" x1="310.24" y1="633.54" x2="751.12" y2="945.19" gradientUnits="userSpaceOnUse"><stop offset="0" stop-color="#4d4d4d"/><stop offset="0.28" stop-color="#494949"/><stop offset="0.56" stop-color="#3d3d3d"/><stop offset="0.84" stop-color="#292929"/><stop offset="1" stop-color="#1a1a1a"/></linearGradient></defs><title>Iconen-pers-2</title><path class="cls-2" d="M949.85,827c-14.31-92.07-203-312.61-203-312.61s-94-54.13-167.25-55.2L531.24,688.8H502.83L500,720.21l-2.83-31.41H468.76l-48.4-229.65c-73.29,1.07-167.25,55.2-167.25,55.2S64.46,734.89,50.15,827c-1.4,9,7.27,26.52,11.29,34.71,8.69,17.69,17.76,26.05,66.31,42.63l35.72,12.24H310.66L500,811.55l189.34,105H836.53l35.72-12.24c48.55-16.58,57.62-24.94,66.31-42.63C942.58,853.48,951.25,836,949.85,827ZM276.94,871.14c-33.15-41.21-88.49-53.49-88.49-53.49,132.31-33.74,101.76-156.33,101.76-156.33l32.91,124Zm446.12,0L676.88,785.3l32.91-124S679.24,783.91,811.55,817.65C811.55,817.65,756.21,829.93,723.06,871.14Z"/><circle class="cls-3" cx="498.1" cy="119.61" r="36.14"/><path class="cls-4" d="M498.1,119.61s-22.21-8.11-12.92-33.75C485.18,85.86,470.92,111.75,498.1,119.61Z"/><path class="cls-4" d="M498.1,119.61s-8.1,22.21-33.75,12.93C464.35,132.54,490.24,146.79,498.1,119.61Z"/><path class="cls-4" d="M498.1,119.61s22.21,8.11,12.93,33.75C511,153.36,525.29,127.48,498.1,119.61Z"/><path class="cls-4" d="M498.1,119.61s8.11-22.21,33.76-12.92C531.86,106.69,506,92.43,498.1,119.61Z"/><path class="cls-4" d="M470.76,130.05c-48.23,11.78-81.13,56.61-81.13,106.26v72a115.7,115.7,0,0,0,41.73,89l10,8.33a56.23,56.23,0,0,0,36,13h41.51a56.25,56.25,0,0,0,36-13l10-8.33a115.69,115.69,0,0,0,41.74-89v-73.1C606.58,166.37,542.51,112.52,470.76,130.05Z"/><path class="cls-4" d="M400.7,228.42s-41.4-36.4-31.39,23.65c0,0,4.77,22.29,10.46,39.58s14.56-1.82,14.56-1.82Z"/><path class="cls-4" d="M595.51,228.42s41.4-36.4,31.39,23.65c0,0-4.78,22.29-10.46,39.58s-14.56-1.82-14.56-1.82Z"/><g class="cls-5"><path class="cls-6" d="M394.46,370.9l-4.83-22.73,2.87-56.88,49.3,72.55c8.27,9.38,13.24,20.2,14.39,31.32,1.1,10.61,2.37,23.34,2.77,29.22l-4.07,19-22.08-15.4-19.26-18-12.93-19.43Z"/><path class="cls-7" d="M601.74,370.9l4.84-22.73-2.87-56.88-49.3,72.55c-8.27,9.38-13.25,20.2-14.4,31.32-1.09,10.61-2.36,23.34-2.76,29.22l4.07,19,22.08-15.4,19.26-18,12.93-19.43Z"/><path class="cls-8" d="M540.12,385.18c-10.31,16.19-19.43,16.38-25.55,16.38-3.61,0-5.22-5.68-6-10.36a79.64,79.64,0,0,1-20.77,0c-.73,4.68-2.34,10.36-6,10.36-6.11,0-15.23-.19-25.55-16.38,0,0,4.59,27.95,4.15,39.53H536C535.54,413.13,540.12,385.18,540.12,385.18Z"/></g><rect class="cls-9" x="442.88" y="141.93" width="110.45" height="44.72"/><path class="cls-10" d="M406.88,176.57l36,18s-35.12,16.26-40.18,31.58l-12.06-4.77S393.8,197.86,406.88,176.57Z"/><path class="cls-11" d="M589.33,176.57l-36,18s35.12,16.26,40.17,31.58l12.07-4.77S602.41,197.86,589.33,176.57Z"/><path class="cls-9" d="M501.24,124.87h-73.7c-14.09,3.59-33.35,28.14-31.83,34.8,0,9.75,8.31,20.64,13.41,22.54l19.29,9.35a34.85,34.85,0,0,0,15.25,3.53h57.58Z"/><path class="cls-9" d="M495,124.87h73.71c14.09,3.59,33.34,28.14,31.83,34.8,0,9.75-8.31,20.64-13.41,22.54l-19.29,9.35a34.88,34.88,0,0,1-15.25,3.53H495Z"/><g class="cls-12"><path class="cls-4" d="M550.55,195.09s33.33-45.71,6.28-70.22C556.83,124.87,592.28,139.84,550.55,195.09Z"/><path class="cls-4" d="M445.66,195.09s-33.33-45.71-6.28-70.22C439.38,124.87,403.93,139.84,445.66,195.09Z"/><path class="cls-4" d="M504.84,195.09s14.28-49.21,0-70.22C504.84,124.87,525.67,146.1,504.84,195.09Z"/><path class="cls-4" d="M491.37,195.09s-14.28-49.21,0-70.22C491.37,124.87,470.53,146.1,491.37,195.09Z"/></g><path class="cls-13" d="M532.87,353.14s-26.42-2-31.56-8.44c0,0-.4,5.33-3.21,6.68-2.8-1.35-3.21-6.68-3.21-6.68-5.13,6.41-31.55,8.44-31.55,8.44-9.9,7.58-6.41,32-6.41,32s5.24-21.55,14-24.46c6.75-2.25,20.1-2.07,25.82-1.87V359l1.37-.07,1.37.07v-.12c5.73-.2,19.07-.38,25.83,1.87,8.73,2.91,14,24.46,14,24.46S542.77,360.72,532.87,353.14Z"/><path class="cls-14" d="M604.08,232.12s22.57-19.85,17.12,12.9c0,0-2.61,12.16-5.71,21.58s-7.94-1-7.94-1Z"/><path class="cls-15" d="M391.87,232.12s-22.58-19.85-17.12,12.9c0,0,2.6,12.16,5.7,21.58s7.94-1,7.94-1Z"/><rect class="cls-4" x="479.31" y="459.15" width="37.59" height="30.94" rx="5.48"/><polygon class="cls-4" points="504.04 495.33 498.1 495.33 492.17 495.33 469.71 608.03 498.1 656.37 526.5 608.03 504.04 495.33"/><path class="cls-16" d="M290.21,661.32s-34.43-68.22-37.1-147L131.68,671.51s84.83,111.3,72.73,141.38C204.41,812.89,314.5,778.32,290.21,661.32Z"/><path class="cls-17" d="M708.28,661.32s34.43-68.22,37.11-147L866.82,671.51S782,782.81,794.09,812.89C794.09,812.89,684,778.32,708.28,661.32Z"/><polygon class="cls-18" points="248.87 916.15 229.96 632.57 770.04 632.57 751.13 916.15 248.87 916.15"/><polygon class="cls-19" points="248.87 916.15 229.96 632.57 770.04 632.57 751.13 916.15 248.87 916.15"/><path class="cls-20" d="M769.62,633l-18.85,282.8H249.23L230.38,633H769.62m.83-.78H229.55L248.5,916.54h503l19-284.36Z"/><polygon class="cls-21" points="466.45 798.55 469.66 811.63 480.21 805.32 474.82 805.25 466.45 798.55"/><polygon class="cls-21" points="465.45 788.39 536.99 737.09 466.11 797.34 463.01 789.66 474.99 752.77 465.45 788.39"/><polygon class="cls-21" points="466.45 798.55 470.54 809.46 480.21 805.32 469.66 811.63 466.45 798.55"/><polygon class="cls-21" points="464.13 792.53 468.63 790.85 536.96 737.09 466.07 797.34 464.13 792.53"/><polygon class="cls-21" points="467.47 788.04 536.96 737.09 465.45 788.39 474.99 752.77 465.08 788.09 465.31 788.69 467.47 788.04"/><path class="cls-21" d="M481,804.63v-2.37s3.39-3.84.41-7.17l-9.94-.15,21.1-7.07,5.06,4.64h0l11.51,1.72-14.3,3Z"/><polygon class="cls-21" points="492.54 787.87 494.03 792.68 497.36 794.59 492.03 796.25 480.97 804.63 494.81 797.22 509.11 794.23 497.6 792.51 497.6 792.51 492.54 787.87"/><path class="cls-21" d="M492.54,787.87l-21.1,7.07,9.94.15s3,3-.41,7.17v2.37l1-2.11s3.66-2.76.56-7.93L482,794l-5,.17Z"/><polygon class="cls-21" points="518.15 754.78 493.88 786.7 498.26 790.71 498.67 788.43 518.15 754.78"/><polygon class="cls-21" points="518.15 754.78 497.54 788.26 498.26 790.71 498.67 788.43 518.15 754.78"/><polygon class="cls-21" points="518.15 754.78 494.41 787.18 493.88 786.7 518.15 754.78"/></svg>